 <svg  version="1.0" xmlns="http://www.w3.org/2000/svg"  width="300.000000pt" height="189.000000pt" viewBox="0 0 300.000000 189.000000"  preserveAspectRatio="xMidYMid meet">  <g transform="translate(0.000000,189.000000) scale(0.100000,-0.100000)" fill="#007ab9" stroke="none"> <path d="M663 1716 c-122 -63 -282 -146 -355 -184 -88 -47 -154 -74 -195 -82 -67 -13 -79 -24 -38 -34 l25 -6 2 -463 c1 -368 3 -424 8 -277 4 102 9 308 11 458 3 251 2 275 -14 284 -25 14 -11 28 29 28 34 0 127 46 542 263 78 41 161 82 183 91 l41 17 97 -52 c472 -253 721 -393 714 -400 -8 -8 -73 16 -358 136 -22 10 -37 14 -32 9 4 -4 87 -42 185 -84 l177 -76 5 -144 c4 -102 6 -120 8 -64 l2 82 138 8 c75 5 295 9 487 9 298 0 364 -3 448 -18 126 -24 140 -36 144 -118 6 -100 21 -644 18 -647 -1 -1 -42 4 -91 13 -49 8 -143 17 -209 20 l-120 4 145 -14 c158 -15 199 -21 247 -36 l32 -10 4 -97 c3 -53 3 109 1 360 -3 251 -7 470 -10 487 -8 38 -31 45 -194 62 -134 14 -751 18 -922 6 l-118 -8 0 51 c0 48 2 52 31 62 l31 11 -69 37 c-37 20 -230 125 -427 234 -198 108 -364 196 -370 196 -6 0 -111 -52 -233 -114z"/> <path d="M920 1559 c-226 -32 -444 -69 -453 -78 -5 -5 25 -3 65 4 140 25 424 65 500 71 75 7 77 6 82 -17 3 -13 7 -161 10 -328 3 -167 8 -306 11 -309 7 -8 6 495 -2 596 l-6 82 -36 -1 c-20 -1 -97 -10 -171 -20z"/> <path d="M762 1163 c2 -170 6 -150 10 55 2 61 0 112 -4 112 -5 0 -7 -75 -6 -167z"/> <path d="M1231 1276 c7 -7 333 -105 337 -102 2 2 -68 27 -156 55 -144 46 -193 59 -181 47z"/> <path d="M488 1098 c-2 -90 0 -190 3 -223 3 -33 6 40 7 163 1 122 0 222 -3 222 -2 0 -5 -73 -7 -162z"/> <path d="M1494 960 c0 -146 2 -171 3 -71 4 153 4 153 26 147 52 -15 77 -15 30 0 l-52 16 -4 67 c-2 36 -3 -35 -3 -159z"/> <path d="M1395 1069 c39 -10 74 -17 80 -16 11 4 -118 37 -137 36 -7 0 19 -9 57 -20z"/> <path d="M2378 969 c-5 -3 42 -9 104 -12 131 -8 138 -12 139 -91 0 -28 5 -60 10 -71 6 -14 8 8 6 67 -2 48 -7 91 -10 95 -9 9 -236 20 -249 12z"/> <path d="M774 815 c0 -71 1 -99 3 -62 2 37 2 96 0 130 -2 34 -3 4 -3 -68z"/> <path d="M2381 804 c0 -27 4 -55 11 -62 14 -14 97 -16 118 -2 9 6 -5 7 -41 3 -65 -6 -70 -2 -80 67 l-6 45 -2 -51z"/> <path d="M344 549 c-3 -6 -2 -15 4 -21 13 -13 32 -2 32 18 0 16 -26 19 -36 3z"/> <path d="M1402 543 c2 -10 10 -18 18 -18 22 0 18 29 -3 33 -14 3 -18 -1 -15 -15z"/> <path d="M180 435 l0 -115 59 0 c33 0 63 4 66 10 4 6 -13 10 -44 10 l-51 0 0 105 c0 87 -3 105 -15 105 -12 0 -15 -19 -15 -115z"/> <path d="M926 498 c-17 -151 -18 -178 -8 -178 13 0 21 34 23 95 1 28 4 64 8 80 6 27 10 21 35 -60 15 -49 29 -96 31 -102 10 -31 27 -6 57 89 35 113 45 111 47 -9 1 -67 8 -93 23 -93 10 0 6 100 -8 193 -5 31 -10 38 -26 35 -17 -2 -26 -20 -47 -90 -14 -49 -28 -88 -31 -88 -3 0 -16 39 -30 88 -21 71 -30 88 -47 90 -18 3 -21 -3 -27 -50z"/> <path d="M1513 533 c-7 -2 -13 -13 -13 -23 0 -10 -6 -21 -12 -23 -10 -4 -10 -7 -1 -14 7 -5 13 -39 15 -78 l3 -70 33 -3 c19 -2 32 1 32 8 0 6 -5 8 -10 5 -23 -15 -40 17 -40 76 0 56 1 59 25 59 14 0 25 5 25 10 0 6 -11 10 -24 10 -19 0 -22 4 -18 25 2 14 3 25 1 24 -2 0 -10 -3 -16 -6z"/> <path d="M350 405 c0 -50 4 -85 10 -85 6 0 10 35 10 85 0 50 -4 85 -10 85 -6 0 -10 -35 -10 -85z"/> <path d="M446 474 c-9 -8 -16 -22 -16 -29 0 -19 28 -45 50 -45 31 0 50 -11 50 -31 0 -27 -33 -41 -65 -29 -15 6 -32 7 -38 3 -15 -9 20 -21 64 -22 38 -1 69 22 69 51 0 21 -18 34 -60 45 -64 17 -48 69 18 57 20 -4 32 -2 32 5 0 17 -86 14 -104 -5z"/> <path d="M622 467 c-31 -33 -30 -90 3 -122 24 -25 65 -32 99 -19 31 12 16 22 -24 17 -45 -6 -70 8 -70 41 0 19 4 21 55 18 55 -4 55 -4 55 26 0 59 -76 84 -118 39z m76 -3 c37 -26 28 -44 -23 -44 -49 0 -59 15 -29 44 19 20 24 20 52 0z"/> <path d="M1220 463 c-28 -35 -22 -99 10 -125 22 -18 65 -23 94 -12 29 11 17 23 -18 17 -41 -6 -76 11 -76 37 0 18 7 20 60 20 65 0 72 8 49 53 -16 30 -28 37 -66 37 -23 0 -38 -8 -53 -27z m84 1 c30 -29 20 -44 -29 -44 -49 0 -56 11 -28 42 20 22 37 23 57 2z"/> <path d="M1408 483 c-2 -5 -3 -41 -3 -82 0 -50 4 -76 13 -78 9 -4 12 17 12 81 0 47 -4 86 -9 86 -6 0 -11 -3 -13 -7z"/> <path d="M1618 405 c4 -99 22 -116 22 -20 0 68 12 85 58 85 26 0 32 -18 32 -91 0 -33 4 -59 10 -59 15 0 13 143 -2 158 -16 16 -60 15 -77 0 -11 -10 -14 -10 -18 0 -3 6 -10 12 -16 12 -9 0 -11 -25 -9 -85z"/> <path d="M1834 475 c-41 -28 -36 -122 6 -145 32 -17 100 -10 100 10 0 5 -16 6 -35 3 -26 -4 -41 -1 -55 12 -36 33 -25 45 40 45 57 0 60 1 60 25 0 54 -69 84 -116 50z m67 -5 c10 -6 19 -20 19 -30 0 -17 -7 -20 -45 -20 -49 0 -55 10 -25 40 23 23 25 23 51 10z"/> <path d="M2004 474 c3 -9 6 -47 6 -85 0 -39 4 -69 10 -69 6 0 10 29 10 66 0 64 1 66 30 77 17 6 30 15 30 19 0 11 -18 10 -41 -2 -13 -7 -19 -7 -19 0 0 5 -7 10 -16 10 -11 0 -14 -5 -10 -16z"/> <path d="M2240 475 c-9 -11 -14 -66 -16 -183 l-3 -167 10 152 c10 170 18 199 51 206 21 4 21 4 -3 6 -15 0 -32 -6 -39 -14z"/> <path d="M790 410 c0 -5 16 -10 35 -10 19 0 35 5 35 10 0 6 -16 10 -35 10 -19 0 -35 -4 -35 -10z"/> <path d="M185 245 c-54 -53 -14 -150 58 -143 30 3 32 6 35 46 3 39 1 42 -22 42 -14 0 -26 -4 -26 -10 0 -5 9 -10 20 -10 14 0 20 -7 20 -24 0 -28 -21 -39 -54 -26 -26 10 -36 29 -36 69 0 45 21 65 64 58 39 -6 50 7 14 17 -38 10 -48 7 -73 -19z"/> <path d="M334 155 c20 -56 22 -68 10 -80 -18 -17 -18 -26 0 -19 22 9 86 169 64 162 -6 -2 -18 -26 -26 -54 -16 -52 -13 -54 -42 24 -7 17 -16 32 -21 32 -5 0 2 -29 15 -65z"/> <path d="M450 159 c0 -33 4 -59 10 -59 6 0 10 22 10 49 0 35 4 51 16 55 26 10 34 -3 34 -55 0 -27 5 -49 10 -49 6 0 10 22 10 49 0 35 4 51 16 55 30 12 34 6 34 -49 0 -32 4 -55 10 -55 7 0 10 22 8 58 l-3 57 -77 1 -78 1 0 -58z"/> <path d="M660 158 c0 -32 4 -58 10 -58 6 0 10 22 10 49 0 35 4 51 16 55 30 12 34 6 34 -49 0 -32 4 -55 10 -55 7 0 10 22 8 58 l-3 57 -42 0 -43 1 0 -58z"/> <path d="M806 211 c-3 -5 9 -8 26 -7 23 1 33 -4 36 -16 3 -14 -3 -18 -25 -18 -33 0 -53 -16 -53 -42 0 -19 5 -21 61 -22 l36 -1 -4 45 c-3 25 -6 51 -8 58 -5 14 -61 17 -69 3z m62 -67 c-5 -25 -35 -41 -49 -27 -18 18 -3 43 26 43 19 0 26 -5 23 -16z"/> <path d="M937 213 c-18 -17 -5 -44 28 -57 19 -8 35 -19 35 -24 0 -15 -29 -23 -57 -16 -18 5 -24 3 -19 -5 10 -16 62 -14 80 5 22 22 5 50 -35 58 -40 8 -33 29 12 37 l34 6 -36 2 c-20 0 -39 -2 -42 -6z"/> <path d="M1050 160 c0 -33 4 -60 10 -60 6 0 10 27 10 60 0 33 -4 60 -10 60 -6 0 -10 -27 -10 -60z"/> <path d="M1122 163 l3 -58 46 -1 46 -1 -4 51 c-6 70 -11 80 -12 24 -1 -37 -5 -50 -22 -58 -33 -18 -50 3 -42 56 4 31 2 44 -6 44 -8 0 -11 -18 -9 -57z"/> <path d="M1260 158 c0 -32 4 -58 10 -58 6 0 10 22 10 49 0 35 4 51 16 55 30 12 34 6 34 -49 0 -30 5 -55 10 -55 6 0 10 20 10 44 0 46 19 72 44 63 10 -4 16 -25 19 -59 4 -52 4 -52 3 7 l-1 60 -77 1 -78 0 0 -58z"/> </g> </svg> 